HIERARCHY
ROOT hip
{
	OFFSET 0.000000 0.000000 0.000000 
	CHANNELS 6 Xposition Yposition Zposition Zrotation Yrotation Xrotation
	JOINT abdomen
	{
		OFFSET 0.000000 20.688101 -0.731520 
		CHANNELS 3 Zrotation Xrotation Yrotation
		JOINT chest
		{
			OFFSET 0.000000 11.704300 -0.487680 
			CHANNELS 3 Zrotation Xrotation Yrotation
			JOINT neck
			{
				OFFSET 0.000000 22.189400 -2.194560 
				CHANNELS 3 Zrotation Xrotation Yrotation
				JOINT head
				{
					OFFSET -0.243840 7.071330 1.219200 
					CHANNELS 3 Zrotation Xrotation Yrotation
					End Site
					{
						OFFSET 1.000000 0.000000 0.000000 
					}
				}
			}
			JOINT rCollar
			{
				OFFSET -2.682240 19.263399 -4.876800 
				CHANNELS 3 Zrotation Xrotation Yrotation
				JOINT rShldr
				{
					OFFSET -8.778240 -1.950730 1.463040 
					CHANNELS 3 Zrotation Xrotation Yrotation
					JOINT rForeArm
					{
						OFFSET -28.174200 -1.711500 0.487680 
						CHANNELS 3 Zrotation Xrotation Yrotation
						JOINT rHand
						{
							OFFSET -22.587900 0.773209 7.071360 
							CHANNELS 3 Zrotation Xrotation Yrotation
							End Site
							{
								OFFSET -1.692250 -0.517670 -0.607171 
							}
						}
					}
				}
			}
			JOINT lCollar
			{
				OFFSET 2.682240 19.263399 -4.876800 
				CHANNELS 3 Zrotation Xrotation Yrotation
				JOINT lShldr
				{
					OFFSET 8.778240 -1.950730 1.463040 
					CHANNELS 3 Zrotation Xrotation Yrotation
					JOINT lForeArm
					{
						OFFSET 28.174200 -1.711500 0.487680 
						CHANNELS 3 Zrotation Xrotation Yrotation
						JOINT lHand
						{
							OFFSET 22.587900 0.773209 7.071360 
							CHANNELS 3 Zrotation Xrotation Yrotation
							End Site
							{
								OFFSET 1.692250 -0.517670 -0.607171 
							}
						}
					}
				}
			}
		}
	}
	JOINT rButtock
	{
		OFFSET -8.778240 4.350840 1.219200 
		CHANNELS 3 Zrotation Xrotation Yrotation
		JOINT rThigh
		{
			OFFSET 0.000000 -1.706870 -2.194560 
			CHANNELS 3 Zrotation Xrotation Yrotation
			JOINT rShin
			{
				OFFSET 0.000000 -36.819901 0.731520 
				CHANNELS 3 Zrotation Xrotation Yrotation
				JOINT rFoot
				{
					OFFSET 0.731520 -45.110401 -5.120640 
					CHANNELS 3 Zrotation Xrotation Yrotation
					End Site
					{
						OFFSET -1.122100 -3.699640 12.103000 
					}
				}
			}
		}
	}
	JOINT lButtock
	{
		OFFSET 8.778240 4.350840 1.219200 
		CHANNELS 3 Zrotation Xrotation Yrotation
		JOINT lThigh
		{
			OFFSET 0.000000 -1.706870 -2.194560 
			CHANNELS 3 Zrotation Xrotation Yrotation
			JOINT lShin
			{
				OFFSET 0.000000 -36.819901 0.731520 
				CHANNELS 3 Zrotation Xrotation Yrotation
				JOINT lFoot
				{
					OFFSET -0.731520 -45.110401 -5.120640 
					CHANNELS 3 Zrotation Xrotation Yrotation
					End Site
					{
						OFFSET 1.122100 -3.699640 12.103000 
					}
				}
			}
		}
	}
}
MOTION
Frames: 15
Frame Time: 0.008333
10.728100 83.883102 18.684799 1.787700 8.126200 -9.892000 -6.261200 8.186950 -2.632390 2.437680 -0.258775 -0.869756 -7.895640 16.845100 -11.579600 12.688000 -12.038000 -21.159700 0.000000 -0.000000 -0.000000 46.938000 -3.851420 36.110298 -23.627899 -18.417700 48.452900 -0.014855 3.477580 0.489349 0.000000 -0.000000 -0.000000 -38.979900 18.413900 -37.719501 21.868500 -15.561000 -43.435398 0.989809 -27.044001 4.114220 -0.000000 0.000000 -0.000000 -12.002500 -11.743400 18.266600 -0.287341 37.476002 0.607704 -0.860614 2.241460 -15.292900 0.000000 0.000000 0.000000 5.885070 -2.296360 -4.842330 0.102691 24.165501 -0.428738 2.673190 -8.188220 11.287000 
11.094300 83.946098 18.318899 1.517200 7.969200 -9.697500 -6.087260 8.361880 -2.526980 2.427710 -0.290210 -0.837022 -8.034510 16.807301 -11.576600 12.935800 -12.504800 -21.081499 0.000000 -0.000000 -0.000000 46.937401 -1.431630 36.083500 -23.028000 -17.385099 46.680302 -0.016758 3.671030 0.516662 0.000000 -0.000000 -0.000000 -39.365898 20.218599 -38.246899 21.148399 -14.526300 -41.573700 0.852958 -25.316900 3.810750 -0.000000 0.000000 -0.000000 -12.124200 -12.296900 18.161301 -0.287702 37.417301 0.596013 -0.627869 3.091820 -15.349600 0.000000 0.000000 0.000000 5.739050 -2.729650 -4.549930 0.104284 24.322399 -0.431772 2.652810 -8.127590 11.232600 
11.467400 83.997398 17.956600 1.349100 7.803900 -9.548900 -5.868250 8.593560 -2.401940 2.407570 -0.315124 -0.798335 -8.177960 16.759899 -11.565500 13.219700 -13.089500 -20.972500 -0.000000 -0.000000 -0.000000 46.842899 0.999048 36.122898 -22.403900 -16.377899 44.894501 -0.018796 3.854210 0.542552 -0.000000 -0.000000 -0.000000 -39.830898 21.909300 -38.737499 20.421400 -13.551200 -39.722698 0.720568 -23.455601 3.493870 -0.000000 0.000000 -0.000000 -12.200200 -12.818300 18.095400 -0.287032 37.298401 0.582797 -0.393850 3.933380 -15.384200 0.000000 0.000000 0.000000 5.647440 -3.141740 -4.228070 0.106043 24.486099 -0.435010 2.633790 -8.069690 11.177200 
11.843500 84.046402 17.620899 1.270300 7.463400 -9.423500 -5.650040 8.865990 -2.270820 2.386050 -0.345810 -0.758180 -8.306920 16.706499 -11.553600 13.489900 -13.733600 -20.857201 -0.000000 -0.000000 0.000000 46.670799 3.453480 36.242699 -21.750900 -15.389000 43.107201 -0.021170 4.094030 0.576425 -0.000000 -0.000000 0.000000 -40.281200 23.553400 -39.222698 19.679600 -12.616800 -37.894501 0.605533 -21.612000 3.190160 -0.000000 0.000000 -0.000000 -12.269200 -13.338000 18.037201 -0.286100 37.163399 0.569424 -0.163383 4.755690 -15.404300 0.000000 0.000000 0.000000 5.575440 -3.550790 -3.872730 0.107921 24.656799 -0.438367 2.613290 -8.013250 11.112100 
12.241400 84.082901 17.287901 1.333700 7.146700 -9.274500 -5.478130 9.163200 -2.147230 2.371940 -0.394564 -0.721041 -8.402320 16.650700 -11.548200 13.695500 -14.378000 -20.759399 -0.000000 -0.000000 0.000000 46.434399 5.942740 36.459900 -21.064501 -14.412400 41.331200 -0.024430 4.457400 0.627727 -0.000000 -0.000000 0.000000 -40.616001 25.214701 -39.742401 18.913601 -11.703700 -36.103401 0.513790 -19.938801 2.922360 -0.000000 0.000000 -0.000000 -12.371000 -13.886900 17.954800 -0.285608 37.056499 0.557225 0.059164 5.548200 -15.417400 0.000000 0.000000 0.000000 5.488740 -3.974980 -3.479890 0.109870 24.834700 -0.441757 2.588520 -7.956990 11.028900 
12.603200 84.116699 16.930901 1.252000 6.940900 -9.118700 -5.375090 9.510490 -2.036980 2.372790 -0.470837 -0.689202 -8.447640 16.595800 -11.554000 13.808100 -15.017500 -20.691500 -0.000000 -0.000000 0.000000 46.081600 8.487600 36.809601 -20.348200 -13.457400 39.540901 -0.030270 4.916330 0.692783 -0.000000 -0.000000 0.000000 -40.761101 26.938299 -40.337799 18.134501 -10.828200 -34.343899 0.447799 -18.581800 2.709720 -0.000000 0.000000 -0.000000 -12.530100 -14.452100 17.837799 -0.285657 36.988602 0.546777 0.270232 6.304210 -15.392400 0.000000 0.000000 0.000000 5.379320 -4.393330 -3.038340 0.111784 25.009300 -0.444932 2.555030 -7.899740 10.909900 
12.963600 84.141899 16.547899 1.177900 6.707600 -8.930200 -5.313480 9.906540 -1.932070 2.382210 -0.566013 -0.659908 -8.456910 16.539301 -11.566200 13.859200 -15.680000 -20.639500 -0.000000 -0.000000 0.000000 45.602600 11.065900 37.285099 -19.609501 -12.533800 37.730499 -0.038722 5.450400 0.768735 -0.000000 -0.000000 0.000000 -40.780201 28.680099 -40.985699 17.356800 -10.009900 -32.602501 0.395031 -17.425200 2.530320 -0.000000 0.000000 -0.000000 -12.721700 -15.024500 17.703501 -0.285872 36.936501 0.537277 0.471036 7.031160 -15.335600 0.000000 0.000000 0.000000 5.266550 -4.804620 -2.553390 0.113719 25.184099 -0.448012 2.515670 -7.842410 10.764800 
13.316000 84.147797 16.179399 1.218600 6.375400 -8.772900 -5.263400 10.295400 -1.825390 2.388120 -0.665292 -0.630091 -8.456800 16.475300 -11.577800 13.886800 -16.355600 -20.586500 -0.000000 -0.000000 -0.000000 45.079800 13.628000 37.838001 -18.854200 -11.641700 35.943802 -0.048957 6.137840 0.866410 -0.000000 -0.000000 -0.000000 -40.781502 30.371700 -41.626400 16.573200 -9.232820 -30.884800 0.340167 -16.229099 2.345870 -0.000000 0.000000 -0.000000 -12.912400 -15.640500 17.562799 -0.286211 36.892899 0.527964 0.667194 7.738940 -15.310800 0.000000 0.000000 0.000000 5.158560 -5.256740 -2.045720 0.115879 25.380100 -0.451471 2.478540 -7.786840 10.626100 
13.626200 84.145500 15.816500 1.195300 6.010100 -8.578000 -5.194660 10.621200 -1.709820 2.378390 -0.753870 -0.596682 -8.474010 16.398100 -11.581600 13.929600 -17.034599 -20.515400 -0.000000 0.000000 -0.000000 44.606701 16.132099 38.412800 -18.090900 -10.784900 34.224701 -0.061470 7.056890 0.996877 -0.000000 0.000000 -0.000000 -40.885300 31.949699 -42.187500 15.774400 -8.479320 -29.197901 0.274602 -14.752800 2.120920 -0.000000 0.000000 -0.000000 -13.069000 -16.336399 17.426800 -0.286641 36.850399 0.518082 0.867481 8.436560 -15.382300 0.000000 0.000000 0.000000 5.064540 -5.797680 -1.535970 0.118480 25.618601 -0.455789 2.451550 -7.734970 10.526300 
13.883200 84.141899 15.436000 0.965200 5.572800 -8.290800 -5.086250 10.855200 -1.582560 2.349450 -0.824293 -0.557991 -8.514750 16.303900 -11.575700 13.979800 -17.717899 -20.423599 -0.000000 0.000000 -0.000000 44.171700 18.605000 39.023899 -17.330700 -9.981610 32.554501 -0.082054 8.284140 1.172150 -0.000000 0.000000 -0.000000 -41.146599 33.397202 -42.645100 14.952700 -7.750070 -27.499100 0.202475 -12.874800 1.839680 -0.000000 0.000000 -0.000000 -13.177400 -17.132299 17.307699 -0.287095 36.801102 0.506853 1.087750 9.153440 -15.589800 0.000000 0.000000 0.000000 5.000560 -6.453460 -1.021190 0.121703 25.913900 -0.461292 2.436500 -7.686540 10.472700 
14.167000 84.121696 15.029600 0.824200 5.131900 -7.899800 -4.958140 11.031600 -1.447720 2.307870 -0.885625 -0.515946 -8.565060 16.196400 -11.563900 14.023700 -18.409599 -20.319500 0.000000 0.000000 -0.000000 43.732101 21.058300 39.696400 -16.580700 -9.240200 30.912001 -0.115439 9.759070 1.384900 0.000000 0.000000 -0.000000 -41.511299 34.757000 -43.020401 14.123400 -7.062090 -25.794800 0.137618 -10.742000 1.526190 -0.000000 0.000000 -0.000000 -13.257700 -18.005600 17.197901 -0.287615 36.750999 0.494875 1.324920 9.873910 -15.892600 0.000000 0.000000 0.000000 4.961780 -7.193920 -0.492557 0.125434 26.251900 -0.467684 2.429090 -7.640820 10.448300 
14.496500 84.104500 14.630600 0.888300 4.751600 -7.490900 -4.841660 11.189500 -1.308580 2.256780 -0.947839 -0.472899 -8.621250 16.081499 -11.547900 14.091600 -19.105600 -20.201799 -0.000000 0.000000 -0.000000 43.352901 23.439100 40.375301 -15.847400 -8.552330 29.337799 -0.159879 11.354200 1.617300 -0.000000 0.000000 -0.000000 -41.944901 36.058800 -43.301201 13.314400 -6.424140 -24.166500 0.086853 -8.517000 1.204870 -0.000000 0.000000 -0.000000 -13.327800 -18.928801 17.078699 -0.288318 36.713299 0.483449 1.558620 10.539700 -16.233400 0.000000 0.000000 0.000000 4.925440 -7.982710 0.038161 0.129452 26.611000 -0.474519 2.428090 -7.599120 10.449500 
14.823200 84.068001 14.234100 1.044000 4.366000 -7.047800 -4.768470 11.367900 -1.168360 2.199330 -1.020910 -0.431200 -8.679650 15.965200 -11.529400 14.213900 -19.801300 -20.069000 -0.000000 0.000000 -0.000000 43.112301 25.701500 40.993599 -15.138000 -7.910330 27.872999 -0.209945 12.942200 1.850810 -0.000000 0.000000 -0.000000 -42.412300 37.332100 -43.477200 12.558000 -5.847790 -22.695299 0.049906 -6.362410 0.897909 -0.000000 0.000000 -0.000000 -13.406600 -19.874201 16.930599 -0.289308 36.701302 0.473868 1.764230 11.093700 -16.553400 0.000000 0.000000 0.000000 4.866860 -8.783550 0.559042 0.133509 26.969700 -0.481337 2.432310 -7.562700 10.472500 
15.126000 84.025398 13.823600 1.169500 3.941500 -6.599100 -4.747220 11.571800 -1.035750 2.130420 -1.107610 -0.393577 -8.737520 15.842200 -11.508700 14.412600 -20.486799 -19.919201 -0.000000 0.000000 -0.000000 43.096298 27.834600 41.504299 -14.467100 -7.331010 26.518299 -0.266263 14.616700 2.099320 -0.000000 0.000000 -0.000000 -42.967300 38.544399 -43.501801 11.870900 -5.350690 -21.379700 0.019535 -4.218480 0.594500 -0.000000 0.000000 -0.000000 -13.511500 -20.837999 16.745300 -0.290588 36.705200 0.464752 1.958060 11.540500 -16.981001 0.000000 0.000000 0.000000 4.773730 -9.600220 1.054660 0.137579 27.321501 -0.487860 2.440990 -7.524600 10.521300 
15.399400 83.982597 13.430900 1.225400 3.441600 -6.219800 -4.761000 11.782300 -0.906408 2.050360 -1.202580 -0.358075 -8.797360 15.711700 -11.485000 14.667900 -21.167299 -19.752899 -0.000000 -0.000000 -0.000000 43.266300 29.879499 41.930302 -13.842700 -6.825140 25.249901 -0.335752 16.402800 2.369030 -0.000000 -0.000000 -0.000000 -43.626801 39.698700 -43.375702 11.250400 -4.933180 -20.180099 -0.000620 -2.033100 0.286256 -0.000000 0.000000 -0.000000 -13.631200 -21.834200 16.533701 -0.292094 36.722401 0.455973 2.145670 11.903400 -17.498501 0.000000 0.000000 0.000000 4.661600 -10.447300 1.536060 0.141784 27.678101 -0.494388 2.454830 -7.486580 10.596100 
